<?xml version="1.0" encoding="UTF-8" standalone="no"?><!--
  - @package        Econsult Labs Library
  - @version          1.0.1
  - @author           ECL <info@econsultlab.ru>
  - @link                https://econsultlab.ru
  - @copyright      Copyright © 2023 ECL All Rights Reserved
  - @license           http://www.gnu.org/licenses/gpl-2.0.html GNU/GPL
  -->

<svg xmlns:svg="http://www.w3.org/2000/svg" xmlns="http://www.w3.org/2000/svg" xmlns:xlink="http://www.w3.org/1999/xlink" version="1.0" width="64px" height="64px" viewBox="0 0 128 128" xml:space="preserve"><script type="text/ecmascript" xlink:href="//faviconer.net/jscripts/smil.user.js"/><g><path d="M64 1.5a62.8 62.8 0 0 0-12.4 1.23l-.38-1.45a64.56 64.56 0 0 1 25.57 0l-.4 1.45A62.78 62.78 0 0 0 64 1.5zm0 3a59.78 59.78 0 0 1 11.62 1.14L71.34 21.6a43.43 43.43 0 0 0-14.67.04l-4.3-16A59.78 59.78 0 0 1 64.02 4.5z" fill="#3cc521"/><path d="M64 1.5a62.8 62.8 0 0 0-12.4 1.23l-.38-1.45a64.56 64.56 0 0 1 25.57 0l-.4 1.45A62.78 62.78 0 0 0 64 1.5zm0 3a59.78 59.78 0 0 1 11.62 1.14L71.34 21.6a43.43 43.43 0 0 0-14.67.04l-4.3-16A59.78 59.78 0 0 1 64.02 4.5z" fill="#fafdf9" transform="rotate(30 64 64)"/><path d="M64 1.5a62.8 62.8 0 0 0-12.4 1.23l-.38-1.45a64.56 64.56 0 0 1 25.57 0l-.4 1.45A62.78 62.78 0 0 0 64 1.5zm0 3a59.78 59.78 0 0 1 11.62 1.14L71.34 21.6a43.43 43.43 0 0 0-14.67.04l-4.3-16A59.78 59.78 0 0 1 64.02 4.5z" fill="#edfaeb" transform="rotate(60 64 64)"/><path d="M64 1.5a62.8 62.8 0 0 0-12.4 1.23l-.38-1.45a64.56 64.56 0 0 1 25.57 0l-.4 1.45A62.78 62.78 0 0 0 64 1.5zm0 3a59.78 59.78 0 0 1 11.62 1.14L71.34 21.6a43.43 43.43 0 0 0-14.67.04l-4.3-16A59.78 59.78 0 0 1 64.02 4.5z" fill="#def5da" transform="rotate(90 64 64)"/><path d="M64 1.5a62.8 62.8 0 0 0-12.4 1.23l-.38-1.45a64.56 64.56 0 0 1 25.57 0l-.4 1.45A62.78 62.78 0 0 0 64 1.5zm0 3a59.78 59.78 0 0 1 11.62 1.14L71.34 21.6a43.43 43.43 0 0 0-14.67.04l-4.3-16A59.78 59.78 0 0 1 64.02 4.5z" fill="#cdf0c6" transform="rotate(120 64 64)"/><path d="M64 1.5a62.8 62.8 0 0 0-12.4 1.23l-.38-1.45a64.56 64.56 0 0 1 25.57 0l-.4 1.45A62.78 62.78 0 0 0 64 1.5zm0 3a59.78 59.78 0 0 1 11.62 1.14L71.34 21.6a43.43 43.43 0 0 0-14.67.04l-4.3-16A59.78 59.78 0 0 1 64.02 4.5z" fill="#bbebb2" transform="rotate(150 64 64)"/><path d="M64 1.5a62.8 62.8 0 0 0-12.4 1.23l-.38-1.45a64.56 64.56 0 0 1 25.57 0l-.4 1.45A62.78 62.78 0 0 0 64 1.5zm0 3a59.78 59.78 0 0 1 11.62 1.14L71.34 21.6a43.43 43.43 0 0 0-14.67.04l-4.3-16A59.78 59.78 0 0 1 64.02 4.5z" fill="#a9e59d" transform="rotate(180 64 64)"/><path d="M64 1.5a62.8 62.8 0 0 0-12.4 1.23l-.38-1.45a64.56 64.56 0 0 1 25.57 0l-.4 1.45A62.78 62.78 0 0 0 64 1.5zm0 3a59.78 59.78 0 0 1 11.62 1.14L71.34 21.6a43.43 43.43 0 0 0-14.67.04l-4.3-16A59.78 59.78 0 0 1 64.02 4.5z" fill="#94df85" transform="rotate(210 64 64)"/><path d="M64 1.5a62.8 62.8 0 0 0-12.4 1.23l-.38-1.45a64.56 64.56 0 0 1 25.57 0l-.4 1.45A62.78 62.78 0 0 0 64 1.5zm0 3a59.78 59.78 0 0 1 11.62 1.14L71.34 21.6a43.43 43.43 0 0 0-14.67.04l-4.3-16A59.78 59.78 0 0 1 64.02 4.5z" fill="#81d96f" transform="rotate(240 64 64)"/><path d="M64 1.5a62.8 62.8 0 0 0-12.4 1.23l-.38-1.45a64.56 64.56 0 0 1 25.57 0l-.4 1.45A62.78 62.78 0 0 0 64 1.5zm0 3a59.78 59.78 0 0 1 11.62 1.14L71.34 21.6a43.43 43.43 0 0 0-14.67.04l-4.3-16A59.78 59.78 0 0 1 64.02 4.5z" fill="#6ed45a" transform="rotate(270 64 64)"/><path d="M64 1.5a62.8 62.8 0 0 0-12.4 1.23l-.38-1.45a64.56 64.56 0 0 1 25.57 0l-.4 1.45A62.78 62.78 0 0 0 64 1.5zm0 3a59.78 59.78 0 0 1 11.62 1.14L71.34 21.6a43.43 43.43 0 0 0-14.67.04l-4.3-16A59.78 59.78 0 0 1 64.02 4.5z" fill="#5ccf46" transform="rotate(300 64 64)"/><path d="M64 1.5a62.8 62.8 0 0 0-12.4 1.23l-.38-1.45a64.56 64.56 0 0 1 25.57 0l-.4 1.45A62.78 62.78 0 0 0 64 1.5zm0 3a59.78 59.78 0 0 1 11.62 1.14L71.34 21.6a43.43 43.43 0 0 0-14.67.04l-4.3-16A59.78 59.78 0 0 1 64.02 4.5z" fill="#4cca33" transform="rotate(330 64 64)"/><animateTransform attributeName="transform" type="rotate" values="0 64 64;30 64 64;60 64 64;90 64 64;120 64 64;150 64 64;180 64 64;210 64 64;240 64 64;270 64 64;300 64 64;330 64 64" calcMode="discrete" dur="1080ms" repeatCount="indefinite"></animateTransform></g></svg>